<mxfile host="Electron" agent="Mozilla/5.0 (Windows NT 10.0; Win64; x64) AppleWebKit/537.36 (KHTML, like Gecko) draw.io/24.7.17 Chrome/128.0.6613.36 Electron/32.0.1 Safari/537.36" version="24.7.17">
  <diagram name="Page-1" id="jyRqW6279mEg-bHfdb6m">
    <mxGraphModel dx="1562" dy="909" grid="1" gridSize="10" guides="1" tooltips="1" connect="1" arrows="1" fold="1" page="1" pageScale="1" pageWidth="827" pageHeight="1169" math="0" shadow="0">
      <root>
        <mxCell id="0" />
        <mxCell id="1" parent="0" />
        <mxCell id="Z74IWRZ0QqRT0lo83E3F-8" value="Read cached data&lt;div&gt;Store computed data&lt;/div&gt;" style="edgeStyle=orthogonalEdgeStyle;rounded=0;orthogonalLoop=1;jettySize=auto;html=1;exitX=0;exitY=0.25;exitDx=0;exitDy=0;entryX=1;entryY=0.5;entryDx=0;entryDy=0;startArrow=classic;startFill=1;" edge="1" parent="1" source="Z74IWRZ0QqRT0lo83E3F-1" target="Z74IWRZ0QqRT0lo83E3F-6">
          <mxGeometry relative="1" as="geometry" />
        </mxCell>
        <mxCell id="Z74IWRZ0QqRT0lo83E3F-1" value="Backend&lt;div&gt;&lt;br&gt;&lt;/div&gt;&lt;div&gt;FastAPI&lt;/div&gt;&lt;div&gt;Deployed on Lambda&lt;/div&gt;" style="rounded=1;whiteSpace=wrap;html=1;" vertex="1" parent="1">
          <mxGeometry x="320" y="440" width="160" height="80" as="geometry" />
        </mxCell>
        <mxCell id="Z74IWRZ0QqRT0lo83E3F-5" value="&lt;div&gt;GET /day_data&lt;br&gt;&lt;/div&gt;" style="edgeStyle=orthogonalEdgeStyle;rounded=0;orthogonalLoop=1;jettySize=auto;html=1;entryX=1;entryY=0.5;entryDx=0;entryDy=0;startArrow=classic;startFill=1;" edge="1" parent="1" source="Z74IWRZ0QqRT0lo83E3F-2" target="Z74IWRZ0QqRT0lo83E3F-1">
          <mxGeometry y="-10" relative="1" as="geometry">
            <mxPoint as="offset" />
          </mxGeometry>
        </mxCell>
        <mxCell id="Z74IWRZ0QqRT0lo83E3F-2" value="Frontend&lt;div&gt;&lt;br&gt;&lt;/div&gt;&lt;div&gt;NextJS&lt;/div&gt;&lt;div&gt;Deployed on Vercel&lt;/div&gt;" style="rounded=1;whiteSpace=wrap;html=1;" vertex="1" parent="1">
          <mxGeometry x="600" y="440" width="160" height="80" as="geometry" />
        </mxCell>
        <mxCell id="Z74IWRZ0QqRT0lo83E3F-3" value="portail-api.meteofrance.fr&lt;div&gt;&lt;br&gt;&lt;/div&gt;&lt;div&gt;Get recent data&lt;/div&gt;" style="ellipse;shape=cloud;whiteSpace=wrap;html=1;" vertex="1" parent="1">
          <mxGeometry x="15" y="270" width="210" height="80" as="geometry" />
        </mxCell>
        <mxCell id="Z74IWRZ0QqRT0lo83E3F-4" value="&lt;div&gt;object.files.data.gouv.fr&lt;/div&gt;&lt;div&gt;&lt;br&gt;&lt;/div&gt;&lt;div&gt;Get bulk historical data&lt;/div&gt;" style="ellipse;shape=cloud;whiteSpace=wrap;html=1;" vertex="1" parent="1">
          <mxGeometry x="15" y="610" width="210" height="80" as="geometry" />
        </mxCell>
        <mxCell id="Z74IWRZ0QqRT0lo83E3F-6" value="&lt;div&gt;Compute s&lt;span style=&quot;background-color: initial;&quot;&gt;tore (cache)&lt;/span&gt;&lt;/div&gt;&lt;div&gt;&lt;br&gt;&lt;/div&gt;&lt;div&gt;K : TS1-TS2, V : rain_mm&lt;/div&gt;&lt;div&gt;AWS DynamoDB&lt;/div&gt;" style="rounded=1;whiteSpace=wrap;html=1;" vertex="1" parent="1">
          <mxGeometry x="40" y="380" width="160" height="80" as="geometry" />
        </mxCell>
        <mxCell id="Z74IWRZ0QqRT0lo83E3F-7" value="&lt;div&gt;Object store&lt;/div&gt;&lt;div&gt;&lt;br&gt;&lt;/div&gt;&lt;div&gt;AWS S3&lt;/div&gt;" style="rounded=1;whiteSpace=wrap;html=1;" vertex="1" parent="1">
          <mxGeometry x="40" y="500" width="160" height="80" as="geometry" />
        </mxCell>
        <mxCell id="Z74IWRZ0QqRT0lo83E3F-9" value="Read hist data&lt;div&gt;if not in cache&lt;/div&gt;" style="edgeStyle=orthogonalEdgeStyle;rounded=0;orthogonalLoop=1;jettySize=auto;html=1;exitX=0;exitY=0.75;exitDx=0;exitDy=0;startArrow=classic;startFill=1;entryX=1;entryY=0.5;entryDx=0;entryDy=0;" edge="1" parent="1" source="Z74IWRZ0QqRT0lo83E3F-1" target="Z74IWRZ0QqRT0lo83E3F-7">
          <mxGeometry relative="1" as="geometry">
            <mxPoint x="310" y="610" as="sourcePoint" />
            <mxPoint x="290" y="540" as="targetPoint" />
          </mxGeometry>
        </mxCell>
        <mxCell id="Z74IWRZ0QqRT0lo83E3F-10" value="Request data if not in&lt;div&gt;Object store&lt;/div&gt;" style="edgeStyle=orthogonalEdgeStyle;rounded=0;orthogonalLoop=1;jettySize=auto;html=1;exitX=0.25;exitY=1;exitDx=0;exitDy=0;entryX=0.875;entryY=0.5;entryDx=0;entryDy=0;entryPerimeter=0;startArrow=classic;startFill=1;" edge="1" parent="1" source="Z74IWRZ0QqRT0lo83E3F-1" target="Z74IWRZ0QqRT0lo83E3F-4">
          <mxGeometry relative="1" as="geometry">
            <Array as="points">
              <mxPoint x="360" y="650" />
            </Array>
          </mxGeometry>
        </mxCell>
        <mxCell id="Z74IWRZ0QqRT0lo83E3F-11" value="Request data if not in&lt;div&gt;Compute store&lt;/div&gt;" style="edgeStyle=orthogonalEdgeStyle;rounded=0;orthogonalLoop=1;jettySize=auto;html=1;exitX=0.25;exitY=0;exitDx=0;exitDy=0;entryX=0.875;entryY=0.5;entryDx=0;entryDy=0;entryPerimeter=0;startArrow=classic;startFill=1;" edge="1" parent="1" source="Z74IWRZ0QqRT0lo83E3F-1" target="Z74IWRZ0QqRT0lo83E3F-3">
          <mxGeometry relative="1" as="geometry">
            <Array as="points">
              <mxPoint x="360" y="310" />
            </Array>
          </mxGeometry>
        </mxCell>
      </root>
    </mxGraphModel>
  </diagram>
</mxfile>
